#N canvas 31 210 1586 504 10;
#X obj 22 256 bendout;
#X obj 62 170 hsl 1500 15 -8193 8192 0 0 empty empty empty -2 -8 0
10 -262144 -1 -1 97570 0;
#X obj 315 32 bendin;
#X obj 324 67 pack f f;
#X obj 329 108 print in;
#X floatatom 22 207 8 0 0 0 - - -;
#X obj 59 128 random 8192;
#X obj 59 70 metro 200;
#X obj 60 41 tgl 15 0 empty empty empty 17 7 0 10 -262144 -1 -1 1 1
;
#X floatatom 103 46 5 0 0 0 - - -;
#X obj 106 27 hsl 128 15 20 2000 0 0 empty empty empty -2 -8 0 10 -262144
-1 -1 5200 1;
#X connect 1 0 5 0;
#X connect 2 0 3 0;
#X connect 2 1 3 1;
#X connect 3 0 4 0;
#X connect 5 0 0 0;
#X connect 6 0 1 0;
#X connect 7 0 6 0;
#X connect 8 0 7 0;
#X connect 9 0 7 1;
#X connect 10 0 9 0;
